<mxfile host="app.diagrams.net" agent="Mozilla/5.0 (Windows NT 10.0; Win64; x64) AppleWebKit/537.36 (KHTML, like Gecko) Chrome/126.0.0.0 Safari/537.36" version="24.7.4">
  <diagram id="C5RBs43oDa-KdzZeNtuy" name="Page-1">
    <mxGraphModel dx="1050" dy="557" grid="1" gridSize="10" guides="1" tooltips="1" connect="1" arrows="1" fold="1" page="1" pageScale="1" pageWidth="827" pageHeight="1169" math="0" shadow="0">
      <root>
        <mxCell id="WIyWlLk6GJQsqaUBKTNV-0" />
        <mxCell id="WIyWlLk6GJQsqaUBKTNV-1" parent="WIyWlLk6GJQsqaUBKTNV-0" />
        <mxCell id="xTg0wnsHHGGGO0i4gjY1-3" value="&lt;b&gt;Client&lt;/b&gt;&lt;div&gt;Sends HTTP req to a API&lt;/div&gt;" style="rounded=1;whiteSpace=wrap;html=1;" vertex="1" parent="WIyWlLk6GJQsqaUBKTNV-1">
          <mxGeometry x="130" y="50" width="180" height="50" as="geometry" />
        </mxCell>
        <mxCell id="xTg0wnsHHGGGO0i4gjY1-6" value="" style="rounded=0;html=1;jettySize=auto;orthogonalLoop=1;fontSize=11;endArrow=block;endFill=0;endSize=8;strokeWidth=1;shadow=0;labelBackgroundColor=none;edgeStyle=orthogonalEdgeStyle;" edge="1" parent="WIyWlLk6GJQsqaUBKTNV-1" target="xTg0wnsHHGGGO0i4gjY1-5">
          <mxGeometry relative="1" as="geometry">
            <mxPoint x="220" y="110" as="sourcePoint" />
            <mxPoint x="220" y="170" as="targetPoint" />
            <Array as="points" />
          </mxGeometry>
        </mxCell>
        <mxCell id="xTg0wnsHHGGGO0i4gjY1-5" value="&lt;b&gt;API server (main.go)&lt;/b&gt;&lt;div&gt;(Handles HTTP requests using Gorilla Mux)&lt;/div&gt;&lt;div&gt;&amp;nbsp;Handlers:&amp;nbsp;&lt;br&gt;&amp;nbsp;1.handleCacheRequest(post, get, delete)&lt;br&gt;&amp;nbsp;2.handleGetAllCacheRequest(get all)&lt;br&gt;&lt;div&gt;&lt;br&gt;&lt;/div&gt;&lt;/div&gt;" style="rounded=1;whiteSpace=wrap;html=1;" vertex="1" parent="WIyWlLk6GJQsqaUBKTNV-1">
          <mxGeometry x="82.5" y="155" width="275" height="100" as="geometry" />
        </mxCell>
        <mxCell id="xTg0wnsHHGGGO0i4gjY1-17" style="edgeStyle=orthogonalEdgeStyle;rounded=0;orthogonalLoop=1;jettySize=auto;html=1;" edge="1" parent="WIyWlLk6GJQsqaUBKTNV-1" source="xTg0wnsHHGGGO0i4gjY1-9">
          <mxGeometry relative="1" as="geometry">
            <mxPoint x="420" y="370" as="targetPoint" />
          </mxGeometry>
        </mxCell>
        <mxCell id="xTg0wnsHHGGGO0i4gjY1-18" style="edgeStyle=orthogonalEdgeStyle;rounded=0;orthogonalLoop=1;jettySize=auto;html=1;entryX=0;entryY=0.25;entryDx=0;entryDy=0;" edge="1" parent="WIyWlLk6GJQsqaUBKTNV-1" source="xTg0wnsHHGGGO0i4gjY1-9" target="xTg0wnsHHGGGO0i4gjY1-15">
          <mxGeometry relative="1" as="geometry" />
        </mxCell>
        <mxCell id="xTg0wnsHHGGGO0i4gjY1-19" style="edgeStyle=orthogonalEdgeStyle;rounded=0;orthogonalLoop=1;jettySize=auto;html=1;entryX=0;entryY=0.5;entryDx=0;entryDy=0;" edge="1" parent="WIyWlLk6GJQsqaUBKTNV-1" source="xTg0wnsHHGGGO0i4gjY1-9" target="xTg0wnsHHGGGO0i4gjY1-13">
          <mxGeometry relative="1" as="geometry" />
        </mxCell>
        <mxCell id="xTg0wnsHHGGGO0i4gjY1-9" value="&lt;b&gt;Unified Cache(pkg/api)&lt;/b&gt;&lt;div&gt;&amp;nbsp;(Manages multiple cache types)&amp;nbsp; 1.InMemoryCache (LRU)&amp;nbsp;&amp;nbsp;&lt;/div&gt;&lt;div&gt;2.RedisCache&amp;nbsp;&lt;/div&gt;&lt;div&gt;3.MemcachedCache&lt;br&gt;&lt;/div&gt;" style="rounded=1;whiteSpace=wrap;html=1;" vertex="1" parent="WIyWlLk6GJQsqaUBKTNV-1">
          <mxGeometry x="95" y="320" width="245" height="100" as="geometry" />
        </mxCell>
        <mxCell id="xTg0wnsHHGGGO0i4gjY1-10" value="" style="endArrow=classic;html=1;rounded=0;" edge="1" parent="WIyWlLk6GJQsqaUBKTNV-1">
          <mxGeometry width="50" height="50" relative="1" as="geometry">
            <mxPoint x="219.5" y="260" as="sourcePoint" />
            <mxPoint x="220" y="310" as="targetPoint" />
            <Array as="points">
              <mxPoint x="219.5" y="300" />
            </Array>
          </mxGeometry>
        </mxCell>
        <mxCell id="xTg0wnsHHGGGO0i4gjY1-25" style="edgeStyle=orthogonalEdgeStyle;rounded=0;orthogonalLoop=1;jettySize=auto;html=1;exitX=1;exitY=0.5;exitDx=0;exitDy=0;" edge="1" parent="WIyWlLk6GJQsqaUBKTNV-1" source="xTg0wnsHHGGGO0i4gjY1-13">
          <mxGeometry relative="1" as="geometry">
            <mxPoint x="620" y="370" as="targetPoint" />
            <Array as="points">
              <mxPoint x="621" y="250" />
            </Array>
          </mxGeometry>
        </mxCell>
        <mxCell id="xTg0wnsHHGGGO0i4gjY1-13" value="LRU CACHE&lt;div&gt;(In Memory)&lt;/div&gt;" style="rounded=1;whiteSpace=wrap;html=1;" vertex="1" parent="WIyWlLk6GJQsqaUBKTNV-1">
          <mxGeometry x="440" y="220" width="120" height="60" as="geometry" />
        </mxCell>
        <mxCell id="xTg0wnsHHGGGO0i4gjY1-26" style="edgeStyle=orthogonalEdgeStyle;rounded=0;orthogonalLoop=1;jettySize=auto;html=1;" edge="1" parent="WIyWlLk6GJQsqaUBKTNV-1" source="xTg0wnsHHGGGO0i4gjY1-14">
          <mxGeometry relative="1" as="geometry">
            <mxPoint x="620" y="370" as="targetPoint" />
          </mxGeometry>
        </mxCell>
        <mxCell id="xTg0wnsHHGGGO0i4gjY1-28" style="edgeStyle=orthogonalEdgeStyle;rounded=0;orthogonalLoop=1;jettySize=auto;html=1;entryX=0;entryY=0.5;entryDx=0;entryDy=0;" edge="1" parent="WIyWlLk6GJQsqaUBKTNV-1" source="xTg0wnsHHGGGO0i4gjY1-14" target="xTg0wnsHHGGGO0i4gjY1-21">
          <mxGeometry relative="1" as="geometry" />
        </mxCell>
        <mxCell id="xTg0wnsHHGGGO0i4gjY1-29" style="edgeStyle=orthogonalEdgeStyle;rounded=0;orthogonalLoop=1;jettySize=auto;html=1;exitX=1;exitY=0.5;exitDx=0;exitDy=0;entryX=0;entryY=0.5;entryDx=0;entryDy=0;" edge="1" parent="WIyWlLk6GJQsqaUBKTNV-1" source="xTg0wnsHHGGGO0i4gjY1-14" target="xTg0wnsHHGGGO0i4gjY1-20">
          <mxGeometry relative="1" as="geometry">
            <Array as="points">
              <mxPoint x="620" y="370" />
              <mxPoint x="620" y="330" />
            </Array>
          </mxGeometry>
        </mxCell>
        <mxCell id="xTg0wnsHHGGGO0i4gjY1-30" style="edgeStyle=orthogonalEdgeStyle;rounded=0;orthogonalLoop=1;jettySize=auto;html=1;entryX=0;entryY=0.5;entryDx=0;entryDy=0;" edge="1" parent="WIyWlLk6GJQsqaUBKTNV-1" source="xTg0wnsHHGGGO0i4gjY1-14" target="xTg0wnsHHGGGO0i4gjY1-22">
          <mxGeometry relative="1" as="geometry" />
        </mxCell>
        <mxCell id="xTg0wnsHHGGGO0i4gjY1-31" style="edgeStyle=orthogonalEdgeStyle;rounded=0;orthogonalLoop=1;jettySize=auto;html=1;entryX=0;entryY=0.5;entryDx=0;entryDy=0;" edge="1" parent="WIyWlLk6GJQsqaUBKTNV-1" source="xTg0wnsHHGGGO0i4gjY1-14" target="xTg0wnsHHGGGO0i4gjY1-23">
          <mxGeometry relative="1" as="geometry">
            <Array as="points">
              <mxPoint x="625" y="370" />
              <mxPoint x="625" y="490" />
            </Array>
          </mxGeometry>
        </mxCell>
        <mxCell id="xTg0wnsHHGGGO0i4gjY1-14" value="Redis Cache&lt;br&gt;(Network cached service)" style="rounded=1;whiteSpace=wrap;html=1;" vertex="1" parent="WIyWlLk6GJQsqaUBKTNV-1">
          <mxGeometry x="440" y="340" width="120" height="60" as="geometry" />
        </mxCell>
        <mxCell id="xTg0wnsHHGGGO0i4gjY1-27" style="edgeStyle=orthogonalEdgeStyle;rounded=0;orthogonalLoop=1;jettySize=auto;html=1;exitX=1;exitY=0.5;exitDx=0;exitDy=0;" edge="1" parent="WIyWlLk6GJQsqaUBKTNV-1">
          <mxGeometry relative="1" as="geometry">
            <mxPoint x="620" y="370" as="targetPoint" />
            <mxPoint x="550" y="490" as="sourcePoint" />
          </mxGeometry>
        </mxCell>
        <mxCell id="xTg0wnsHHGGGO0i4gjY1-15" value="Memcached&lt;br&gt;(Network Cached service)" style="rounded=1;whiteSpace=wrap;html=1;" vertex="1" parent="WIyWlLk6GJQsqaUBKTNV-1">
          <mxGeometry x="440" y="470" width="120" height="60" as="geometry" />
        </mxCell>
        <mxCell id="xTg0wnsHHGGGO0i4gjY1-20" value="Get All" style="rounded=1;whiteSpace=wrap;html=1;" vertex="1" parent="WIyWlLk6GJQsqaUBKTNV-1">
          <mxGeometry x="690" y="310" width="100" height="40" as="geometry" />
        </mxCell>
        <mxCell id="xTg0wnsHHGGGO0i4gjY1-21" value="Post" style="rounded=1;whiteSpace=wrap;html=1;" vertex="1" parent="WIyWlLk6GJQsqaUBKTNV-1">
          <mxGeometry x="690" y="230" width="95" height="40" as="geometry" />
        </mxCell>
        <mxCell id="xTg0wnsHHGGGO0i4gjY1-22" value="Get/key" style="rounded=1;whiteSpace=wrap;html=1;" vertex="1" parent="WIyWlLk6GJQsqaUBKTNV-1">
          <mxGeometry x="690" y="390" width="100" height="40" as="geometry" />
        </mxCell>
        <mxCell id="xTg0wnsHHGGGO0i4gjY1-23" value="Delete" style="rounded=1;whiteSpace=wrap;html=1;" vertex="1" parent="WIyWlLk6GJQsqaUBKTNV-1">
          <mxGeometry x="690" y="470" width="100" height="40" as="geometry" />
        </mxCell>
      </root>
    </mxGraphModel>
  </diagram>
</mxfile>
